<svg xmlns="http://www.w3.org/2000/svg" width="1200" height="800" viewBox="0 0 1200 800" role="img" aria-label="Past project: new gutter install">
  <defs>
    <linearGradient id="bg" x1="0" y1="0" x2="1" y2="1">
      <stop offset="0" stop-color="#0f172a"/>
      <stop offset="1" stop-color="#111827"/>
    </linearGradient>
    <linearGradient id="gutter" x1="0" y1="0" x2="1" y2="0">
      <stop offset="0" stop-color="#60a5fa"/>
      <stop offset="1" stop-color="#2563eb"/>
    </linearGradient>
  </defs>
  <rect width="1200" height="800" fill="url(#bg)"/>
  <rect x="120" y="120" width="960" height="560" rx="36" fill="#0b1220" opacity="0.52"/>

  <!-- Facade line -->
  <rect x="260" y="300" width="680" height="320" rx="24" fill="#1f2937" opacity="0.7"/>

  <!-- Roof edge + gutter -->
  <path d="M240 300h720" stroke="#e5e7eb" stroke-width="22" stroke-linecap="round" opacity="0.7"/>
  <path d="M250 312h700" stroke="url(#gutter)" stroke-width="14" stroke-linecap="round"/>

  <!-- Downpipe -->
  <path d="M900 312v250" stroke="url(#gutter)" stroke-width="16" stroke-linecap="round"/>

  <!-- Water drops -->
  <g fill="#60a5fa" opacity="0.45">
    <path d="M360 520c0 22 18 40 40 40s40-18 40-40c0-32-40-72-40-72s-40 40-40 72z"/>
    <path d="M520 540c0 18 14 32 32 32s32-14 32-32c0-26-32-60-32-60s-32 34-32 60z"/>
    <path d="M660 520c0 22 18 40 40 40s40-18 40-40c0-32-40-72-40-72s-40 40-40 72z"/>
  </g>

  <text x="160" y="740" font-family="system-ui, -apple-system, Segoe UI, Roboto, Arial, sans-serif" font-size="44" fill="#e5e7eb" opacity="0.9" font-weight="800">New Gutter Install</text>
</svg>
