<svg xmlns="http://www.w3.org/2000/svg" width="1200" height="800" viewBox="0 0 1200 800" role="img" aria-label="Testimonials illustration">
  <defs>
    <linearGradient id="bg" x1="0" y1="0" x2="1" y2="1">
      <stop offset="0" stop-color="#ffffff"/>
      <stop offset="1" stop-color="#f9fafb"/>
    </linearGradient>
  </defs>
  <rect width="1200" height="800" fill="url(#bg)"/>
  <g fill="#111827" opacity="0.08">
    <rect x="160" y="180" width="880" height="160" rx="28"/>
    <rect x="160" y="380" width="720" height="160" rx="28"/>
    <rect x="160" y="580" width="820" height="120" rx="28"/>
  </g>
  <g fill="#2563eb" opacity="0.20">
    <path d="M220 270c0-44 36-80 80-80h20v80h-50c0 22 18 40 40 40v70c-50 0-90-40-90-90z"/>
    <path d="M420 270c0-44 36-80 80-80h20v80h-50c0 22 18 40 40 40v70c-50 0-90-40-90-90z"/>
  </g>
  <path d="M240 440h560" stroke="#111827" stroke-width="18" stroke-linecap="round" opacity="0.25"/>
  <path d="M240 490h420" stroke="#111827" stroke-width="18" stroke-linecap="round" opacity="0.20"/>
  <text x="160" y="740" font-family="system-ui, -apple-system, Segoe UI, Roboto, Arial, sans-serif" font-size="40" fill="#111827" opacity="0.6" font-weight="800">Testimonials</text>
</svg>
